<?xml version="1.0" encoding="utf-8"?>
<svg xmlns="http://www.w3.org/2000/svg" width="1024" height="1024" viewBox="0 0 378 378"><path d="M 184.354 0.07 C 199.431 -0.949 208.975 9.315 219.836 17.992 L 349.474 122.305 C 355.349 126.944 365.579 133.881 370.027 139.54 C 370.983 150.928 370.027 162.915 370.024 174.366 L 370.049 280.788 C 370.056 288.281 370.654 296.343 369.208 303.705 C 363.087 334.88 337.465 341.386 310.857 341.368 L 192.396 341.345 L 62.343 341.362 C 56.099 341.395 49.902 341.908 43.699 340.93 C 8.973 335.456 6.292 305.355 6.281 278.1 L 6.265 178.471 C 6.264 173.67 5.027 141.444 7.254 138.806 C 11.85 133.36 18.378 128.839 23.892 124.335 L 59.636 95.544 C 87.847 72.482 115.86 49.128 144.473 26.564 C 155.525 17.85 170.101 1.579 184.354 0.07 Z M 159.023 27.863 L 97.877 77.673 C 93.04 81.684 88.003 85.581 83.421 89.876 L 192.396 89.876 L 258.864 89.885 C 269.981 89.886 281.213 90.262 292.313 89.876 L 207.15 21.129 C 199.789 15.176 194.488 9.774 184.354 10.593 C 174.809 12.645 166.361 21.945 159.023 27.863 Z M 20.998 139.54 C 26.8 145.999 34.113 150.905 40.768 156.431 C 49.358 163.185 58.162 169.779 66.525 176.808 L 66.511 121.041 C 66.511 117.114 67.23 106.089 66.525 102.946 C 53.262 113.04 34.246 131.806 20.998 139.54 Z M 16.773 283.163 C 16.763 294.695 16.042 304.452 22.479 314.645 C 36.076 299.971 54.498 284.805 66.525 269.559 C 81.177 257.659 97.687 238.089 111.533 224.443 C 98.327 214.751 85.614 204.497 72.739 194.382 L 44.82 172.831 C 39.092 168.363 22.194 153.457 16.792 151.613 L 16.773 283.163 Z M 254.871 231.623 C 247.533 235.838 240.814 241.889 234.111 247.081 L 204.224 269.786 C 184.814 284.527 190.806 285.111 171.295 270.457 C 155.418 258.533 135.683 241.392 119.452 231.308 L 72.917 278.447 C 58.266 293.128 43.207 307.593 29.28 322.961 C 41.552 332.77 56.738 330.794 71.481 330.765 L 302.426 330.759 C 318.127 330.765 333.959 333.244 346.728 321.823 C 340 313.96 255.975 231.416 255.422 231.308 L 254.871 231.623 Z M 344.716 162.737 L 285.322 207.381 C 278.13 212.803 270.311 218.235 263.787 224.443 C 272.707 233.396 303.827 262.407 308.131 269.559 C 316.198 274.994 347.1 305.39 354.335 314.645 C 359.352 303.129 359.693 297.148 359.671 284.861 L 359.639 191.697 C 359.64 178.608 359.015 165.218 359.977 152.186 L 359.649 151.613 C 354.478 155.029 349.634 158.97 344.716 162.737 Z M 308.131 176.808 C 317.595 170.392 326.139 162.26 335.925 156.431 C 342.227 150.844 349.485 146.463 355.993 141.154 C 348.3 134.476 316.285 107.352 308.131 102.946 L 308.131 176.808 Z M 76.372 185.073 C 85.567 190.998 93.93 198.379 102.72 204.896 C 131.318 226.099 159.179 248.307 187.74 269.559 C 195.29 263.21 203.217 257.431 211.008 251.39 L 250.114 221.17 C 263.49 210.998 284.345 192.955 298.08 185.073 L 298.08 99.903 C 273.382 99.57 248.637 99.903 223.932 99.904 L 76.372 99.903 L 76.372 185.073 Z" style=""/><path d="M 113.082 139.54 C 124.133 139.224 135.271 139.53 146.333 139.534 L 245.642 139.515 C 251.163 139.504 257.212 138.996 262.662 139.726 C 268.456 140.501 268.269 147.052 263.787 149.421 C 255.131 150.095 243.349 149.422 234.359 149.418 L 132.278 149.441 C 128.338 149.449 106.344 152.341 109.455 143.057 C 110.033 141.336 111.583 140.379 113.082 139.54 Z" style=""/><path d="M 152.832 177.734 L 225.634 177.734 C 231.448 177.735 261.811 176.182 265.269 178.581 C 267.599 180.193 267.625 184.902 265.609 186.753 C 262.152 189.925 253.182 188.491 248.937 188.485 L 224.049 188.508 L 128.809 188.53 C 124.38 188.575 114.709 190.127 110.986 187.151 C 106.885 183.871 111.285 178.366 115.325 177.83 C 119.139 177.326 123.502 177.746 127.379 177.743 L 152.832 177.734 Z" style=""/></svg>