<?xml version="1.0" encoding="utf-8"?>
<svg xmlns="http://www.w3.org/2000/svg" width="1024" height="1024" viewBox="0 0 378 378"><path fill="#264653" d="M 185.566 0.042 C 197.137 -0.99 223.953 17.198 235.555 23.891 L 342.941 86.694 C 365.228 100.014 360.435 108.196 360.429 131.806 L 360.445 260.812 C 360.476 288.462 351.182 286.782 330.252 299.213 L 252.537 344.826 C 241.457 351.367 202.166 376.513 191.065 378.174 C 179.374 378.457 174.504 375.267 164.917 369.69 L 28.677 289.732 C 15.248 281.763 15.486 275.927 15.486 260.512 L 15.478 113.565 C 15.44 96.324 17.363 95.008 33.011 85.994 L 157.842 13.436 C 165.728 8.942 176.338 0.816 185.566 0.042 Z"/><path fill="#2A9D8F" d="M 185.593 7.526 C 194.906 6.162 206.75 15.683 214.325 20.114 L 343.685 95.542 C 356.492 103.088 353.096 112.204 353.089 125.668 L 353.1 257.211 C 353.127 265.157 354.842 276.156 347.001 281.159 C 336.861 287.628 325.06 293.58 314.551 299.828 L 215.066 358.307 C 207.829 362.583 199.2 368.741 191.092 370.663 C 179.147 371.428 172.015 365.306 162.091 359.58 L 39.771 287.756 C 25.533 279.596 22.743 279.439 22.736 263.301 L 22.729 116.875 C 22.685 96.929 24.781 99.202 40.65 89.977 L 163.187 18.656 C 170.114 14.686 177.474 8.561 185.593 7.526 Z"/><path fill="#264653" d="M 185.566 54.034 C 195.876 53.337 202.403 60.356 209.83 66.29 L 298.484 137.625 C 302.501 140.797 309.497 145.541 312.539 149.411 C 313.193 157.199 312.539 165.396 312.537 173.227 L 312.554 246.004 C 312.559 251.128 312.968 256.641 311.979 261.676 C 307.793 282.995 290.271 287.444 272.075 287.432 L 191.065 287.416 L 102.128 287.428 C 97.858 287.45 93.62 287.801 89.378 287.132 C 65.631 283.389 63.797 262.804 63.79 244.166 L 63.779 176.034 C 63.778 172.751 62.932 150.713 64.455 148.909 C 67.598 145.185 72.062 142.093 75.833 139.013 L 100.277 119.324 C 119.569 103.553 138.726 87.582 158.293 72.152 C 165.851 66.193 175.819 55.066 185.566 54.034 Z"/><path fill="#E9C46A" d="M 104.988 124.386 C 105.47 126.535 104.978 134.075 104.978 136.76 L 104.988 174.897 C 99.269 170.09 93.248 165.581 87.374 160.962 C 82.823 157.183 77.822 153.828 73.854 149.411 C 82.914 144.122 95.918 131.289 104.988 124.386 Z"/><path fill="#F4A261" d="M 270.211 124.386 C 275.787 127.399 297.681 145.948 302.942 150.515 C 298.491 154.145 293.528 157.141 289.218 160.962 C 282.526 164.948 276.683 170.509 270.211 174.897 L 270.211 124.386 Z"/><path fill="#E9C46A" d="M 70.978 157.667 C 74.672 158.928 86.228 169.122 90.145 172.177 L 109.237 186.915 C 118.042 193.832 126.736 200.844 135.767 207.472 C 126.298 216.804 115.008 230.187 104.988 238.325 C 96.763 248.751 84.165 259.122 74.867 269.157 C 70.465 262.187 70.958 255.514 70.965 247.628 L 70.978 157.667 Z"/><path fill="#E9C46A" d="M 305.442 157.667 L 305.666 158.059 C 305.008 166.971 305.436 176.128 305.435 185.079 L 305.457 248.789 C 305.472 257.192 305.239 261.282 301.808 269.157 C 296.86 262.828 275.728 242.042 270.211 238.325 C 267.268 233.434 245.986 213.595 239.886 207.472 C 244.348 203.227 249.695 199.512 254.613 195.804 L 295.23 165.274 C 298.593 162.698 301.906 160.003 305.442 157.667 Z"/><path fill="#E9C46A" d="M 185.566 61.23 C 192.496 60.67 196.121 64.364 201.155 68.435 L 259.394 115.448 C 251.803 115.712 244.122 115.455 236.52 115.454 L 191.065 115.448 L 116.542 115.448 C 119.676 112.511 123.12 109.846 126.428 107.103 L 168.243 73.04 C 173.261 68.993 179.038 62.633 185.566 61.23 Z"/><path fill="#E9C46A" d="M 234.166 212.167 C 234.544 212.241 292.005 268.689 296.606 274.066 C 287.874 281.876 277.047 280.181 266.31 280.177 L 108.377 280.181 C 98.295 280.201 87.91 281.552 79.518 274.844 C 89.042 264.335 99.34 254.443 109.359 244.403 L 141.182 212.167 C 152.282 219.063 165.778 230.785 176.635 238.939 C 189.978 248.96 185.88 248.561 199.154 238.48 L 219.592 222.953 C 224.176 219.403 228.771 215.265 233.789 212.382 L 234.166 212.167 Z"/><path fill="#E76F51" d="M 111.722 122.305 L 212.631 122.306 C 229.526 122.305 246.448 122.077 263.338 122.305 L 263.338 180.549 C 253.945 185.939 239.683 198.278 230.536 205.234 L 203.793 225.9 C 198.465 230.031 193.044 233.983 187.881 238.325 C 168.35 223.792 149.297 208.605 129.74 194.105 C 123.729 189.648 118.01 184.601 111.722 180.549 L 111.722 122.305 Z"/><path fill="#264653" d="M 136.826 149.411 C 144.383 149.195 152 149.404 159.565 149.407 L 227.478 149.394 C 231.253 149.386 235.39 149.039 239.117 149.538 C 243.079 150.068 242.951 154.548 239.886 156.168 C 233.967 156.629 225.91 156.169 219.762 156.166 L 149.953 156.182 C 147.259 156.187 132.218 158.165 134.346 151.816 C 134.741 150.639 135.801 149.985 136.826 149.411 Z"/><path fill="#264653" d="M 164.009 175.53 L 213.795 175.53 C 217.771 175.531 238.535 174.469 240.9 176.109 C 242.493 177.212 242.511 180.432 241.132 181.698 C 238.768 183.867 232.634 182.886 229.731 182.882 L 212.711 182.898 L 147.581 182.913 C 144.552 182.944 137.939 184.005 135.393 181.97 C 132.588 179.727 135.597 175.962 138.36 175.596 C 140.968 175.251 143.952 175.538 146.603 175.536 L 164.009 175.53 Z"/></svg>