<?xml version="1.0" encoding="utf-8"?>
<svg xmlns="http://www.w3.org/2000/svg" width="1024" height="1024" viewBox="0 0 500 500" xmlns:bx="https://boxy-svg.com"><defs><bx:export><bx:file format="svg"/></bx:export></defs><path fill="#1D3557" d="M 270.038 41.453 C 378.081 35.005 479.75 114.67 494.4 223.01 C 519.834 411.104 302.554 538.135 150.66 421.129 C 120.089 397.481 94.303 365.311 80.943 328.756 C 79.355 324.411 78.213 319.719 76.023 315.64 L 75.751 315.137 C 60.892 314.649 42.869 316.422 28.768 315.196 C 25.809 314.939 22.659 311.665 25.133 308.834 C 27.946 305.619 38.455 307.34 42.275 307.338 L 74.064 307.326 C 72.068 298.308 70.59 289.459 69.057 280.371 C 63.609 280.083 58.019 280.353 52.556 280.359 L 20.534 280.317 C 16.534 280.302 1.83 282.944 1.995 276.177 C 2.121 271.041 7.629 272.344 11.129 272.345 L 67.935 272.34 C 68.846 263.987 67.926 254.888 67.935 246.44 L 40.923 246.432 C 37.636 246.434 23.893 248.292 23.831 242.85 C 23.751 235.791 40.037 238.364 44.427 238.379 C 52.258 238.407 60.108 238.2 67.935 238.377 C 69.982 229.818 70.108 220.618 71.912 211.882 C 65.975 211.894 44.038 214.993 43.511 207.915 C 43.116 202.575 53.072 203.984 56.053 203.987 L 74.064 204.023 C 76.714 185.114 91.146 156.063 101.429 140.014 C 132.226 91.956 181.948 57.728 237.773 45.7 C 248.469 43.396 259.202 42.676 270.038 41.453 Z M 112.912 204.023 C 116.755 203.877 127.031 204.865 120.561 210.9 C 118.502 212.819 112.662 211.93 109.953 211.882 C 107.85 218.169 105.503 231.853 106.168 238.377 C 108.829 238.318 114.115 237.559 116.119 239.566 C 117.646 241.094 117.213 244.029 115.556 245.286 C 112.221 247.813 97.477 245.831 92.539 246.44 C 96.598 246.837 101.092 246.595 105.18 246.44 C 105.4 254.905 106.067 264.231 106.168 272.34 C 109.51 272.335 117.138 271.282 119.462 273.798 C 126.01 280.887 109.074 280.416 106.995 280.371 C 108.021 289.768 109.579 298.441 112.912 307.326 C 110.719 307.322 101.834 306.704 100.54 307.326 C 104.808 307.342 117.172 306.096 119.957 308.952 C 123.272 312.351 118.432 315.213 115.269 315.137 C 116.452 328.47 137.331 358.75 147.815 370.718 C 191.364 420.424 260.48 441.056 324.563 425.959 C 420.532 403.352 480.913 305.457 455.653 210.137 C 441.746 157.666 403.588 113.242 353.493 92.057 C 259.944 52.498 156.592 95.073 117.231 188.62 C 115.566 192.577 111.203 199.822 112.912 204.023 Z M 82.197 204.023 C 92.379 204.407 102.715 204.024 112.912 204.023 C 111.203 199.822 115.566 192.577 117.231 188.62 C 156.592 95.073 259.944 52.498 353.493 92.057 C 403.588 113.242 441.746 157.666 455.653 210.137 C 480.913 305.457 420.532 403.352 324.563 425.959 C 260.48 441.056 191.364 420.424 147.815 370.718 C 137.331 358.75 116.452 328.47 115.269 315.137 C 105.354 315.582 94.992 315.442 85.077 315.137 C 90.256 337.229 102.928 358.026 116.585 375.965 C 220.543 512.525 442.15 469.919 482.935 301.253 C 507.498 199.671 450.631 96.892 352.831 61.561 C 239.6 20.654 110.123 86.73 82.197 204.023 Z M 77.506 280.371 C 78.491 289.506 80.231 298.356 82.197 307.326 L 100.54 307.326 C 101.834 306.704 110.719 307.322 112.912 307.326 C 109.579 298.441 108.021 289.768 106.995 280.371 L 77.506 280.371 Z M 79.974 211.882 C 78.611 220.633 77.586 229.729 75.751 238.377 L 106.168 238.377 C 105.503 231.853 107.85 218.169 109.953 211.882 C 100.025 211.876 89.876 211.393 79.974 211.882 Z M 75.751 246.44 C 75.619 255.085 75.987 263.698 75.751 272.34 L 106.168 272.34 C 106.067 264.231 105.4 254.905 105.18 246.44 C 101.092 246.595 96.598 246.837 92.539 246.44 L 75.751 246.44 Z" style=""/><path fill="#A8DADC" d="M 112.912 204.023 C 111.203 199.822 115.566 192.577 117.231 188.62 C 156.592 95.073 259.944 52.498 353.493 92.057 C 403.588 113.242 441.746 157.666 455.653 210.137 C 480.913 305.457 420.532 403.352 324.563 425.959 C 260.48 441.056 191.364 420.424 147.815 370.718 C 137.331 358.75 116.452 328.47 115.269 315.137 C 118.432 315.213 123.272 312.351 119.957 308.952 C 117.172 306.096 104.808 307.342 100.54 307.326 C 101.834 306.704 110.719 307.322 112.912 307.326 C 109.579 298.441 108.021 289.768 106.995 280.371 C 109.074 280.416 126.01 280.887 119.462 273.798 C 117.138 271.282 109.51 272.335 106.168 272.34 C 106.067 264.231 105.4 254.905 105.18 246.44 C 101.092 246.595 96.598 246.837 92.539 246.44 C 97.477 245.831 112.221 247.813 115.556 245.286 C 117.213 244.029 117.646 241.094 116.119 239.566 C 114.115 237.559 108.829 238.318 106.168 238.377 C 105.503 231.853 107.85 218.169 109.953 211.882 C 112.662 211.93 118.502 212.819 120.561 210.9 C 127.031 204.865 116.755 203.877 112.912 204.023 Z M 184.508 144.595 C 164.953 147.979 161.38 162.936 161.14 180.164 C 133.388 198.731 138.025 194.522 138.042 227.349 L 138.064 321.732 C 138.045 339.245 134.78 361.392 158.418 365.606 C 166.732 367.088 175.933 366.402 184.367 366.401 L 377.134 366.386 C 410.427 366.445 422.806 365.088 422.746 328.699 L 422.732 199.103 C 422.732 198.778 422.728 198.45 422.719 198.125 C 420.66 195.202 403.144 180.886 399.202 178.18 C 399.385 154.693 391.919 144.64 367.793 144.589 L 184.508 144.595 Z" style=""/><path fill="#1D3557" d="M 184.508 144.595 L 367.793 144.589 C 391.919 144.64 399.385 154.693 399.202 178.18 C 403.144 180.886 420.66 195.202 422.719 198.125 C 422.728 198.45 422.732 198.778 422.732 199.103 L 422.746 328.699 C 422.806 365.088 410.427 366.445 377.134 366.386 L 184.367 366.401 C 175.933 366.402 166.732 367.088 158.418 365.606 C 134.78 361.392 138.045 339.245 138.064 321.732 L 138.042 227.349 C 138.025 194.522 133.388 198.731 161.14 180.164 C 161.38 162.936 164.953 147.979 184.508 144.595 Z M 168.741 202.639 C 168.73 206.567 168.698 210.497 168.741 214.426 C 196.6 229.339 226.511 251.32 254.08 268.081 C 263.937 274.074 274.671 284.9 287.226 281.331 C 295.663 278.931 307.385 269.002 314.928 264.026 L 362.207 232.922 C 371.804 226.614 381.836 220.909 391.304 214.426 C 391.28 210.497 391.233 206.567 391.304 202.639 L 391.331 181.883 C 391.344 163.378 391.132 152.389 369.001 151.954 C 355.415 151.688 341.78 151.951 328.188 151.951 L 206.942 151.931 C 192.25 151.912 174.281 148.838 169.658 167.448 C 167.828 174.818 168.732 194.143 168.741 202.639 Z" style=""/><path fill="#5FBCAB" d="M 403.526 344.232 C 407.318 343.335 411.039 343.779 414.846 344.232 C 413.808 346.696 412.675 349.12 411.452 351.496 C 408.874 348.975 406.289 346.552 403.526 344.232 Z" style=""/><path fill="#E63946" d="M 160.258 189.01 L 160.625 189.36 C 161.867 195.615 161.155 202.889 161.14 209.269 C 158.552 207.469 155.887 205.767 153.261 204.023 C 151.298 202.876 149.501 201.585 147.684 200.223 C 150.555 194.917 156.389 193.382 160.258 189.01 Z M 399.202 189.01 C 403.229 190.143 410.225 197.295 413.762 200.223 C 411.946 201.345 410.382 202.63 408.77 204.023 C 405.452 205.45 402.326 207.455 399.202 209.269 L 399.202 189.01 Z" style=""/><path fill="#5FBCAB" d="M 145.939 209.269 C 150.672 211.632 156.128 214.613 160.258 217.942 C 159.669 220.494 160.218 223.828 160.239 226.474 L 160.258 242.689 C 160.259 254.264 158.969 334.634 161.14 338.016 C 156.672 341.906 152.452 346.112 147.684 349.644 C 144.681 341.571 145.935 331.978 145.934 323.54 L 145.939 209.269 Z M 166.522 344.232 C 169.404 344.949 176.966 344.176 180.475 344.151 L 379.059 344.236 C 381.839 344.237 389.069 344.928 391.304 344.232 C 394.569 345.889 402.032 353.441 405.065 356.143 L 404.681 356.32 C 395.817 360.328 363.037 358.278 351.883 358.278 L 173.683 358.295 C 166.315 358.296 160.225 358.789 153.261 356.143 C 156.508 352.111 161.664 346.15 166.522 344.232 Z" style=""/><path fill="#A8DADC" d="M 160.258 217.942 C 188.074 232.93 218.212 255.01 245.473 272.028 C 281.305 294.396 278.953 296.947 316.62 272.289 L 355.866 246.791 C 366.828 239.581 377.604 232.171 388.685 225.13 L 404.711 215.016 C 407.983 212.992 411.265 210.7 414.846 209.269 L 414.864 329.641 C 414.874 334.426 415.217 339.472 414.846 344.232 C 411.039 343.779 407.318 343.335 403.526 344.232 C 399.042 339.433 393.721 335.121 388.845 330.716 C 370.233 313.9 350.232 295.139 331.06 279.263 C 328.262 276.945 324.449 276.046 323.942 280.697 C 323.519 284.565 328.503 287.461 330.958 289.664 L 376.035 329.884 C 381.205 334.493 386.925 338.852 391.304 344.232 C 389.069 344.928 381.839 344.237 379.059 344.236 L 180.475 344.151 C 176.966 344.176 169.404 344.949 166.522 344.232 C 169.5 340.715 173.006 337.798 176.412 334.712 L 219.257 295.253 C 219.856 294.71 242.326 277.496 230.079 277.097 C 225.049 276.933 214.977 288.846 211.29 292.131 C 194.373 307.205 178.113 322.997 161.14 338.016 C 158.969 334.634 160.259 254.264 160.258 242.689 L 160.239 226.474 C 160.218 223.828 159.669 220.494 160.258 217.942 Z" style=""/><path fill="#E63946" d="M 168.741 202.639 C 168.732 194.143 167.828 174.818 169.658 167.448 C 174.281 148.838 192.25 151.912 206.942 151.931 L 328.188 151.951 C 341.78 151.951 355.415 151.688 369.001 151.954 C 391.132 152.389 391.344 163.378 391.331 181.883 L 391.304 202.639 C 391.233 206.567 391.28 210.497 391.304 214.426 C 381.836 220.909 371.804 226.614 362.207 232.922 L 314.928 264.026 C 307.385 269.002 295.663 278.931 287.226 281.331 C 274.671 284.9 263.937 274.074 254.08 268.081 C 226.511 251.32 196.6 229.339 168.741 214.426 C 168.698 210.497 168.73 206.567 168.741 202.639 Z M 207.687 204.711 C 204.124 205.729 201.212 210.131 205.687 212.381 C 209.964 214.534 252.312 213.144 259.873 213.144 L 354.221 213.144 C 356.549 212.847 358.709 211.178 358.615 208.525 C 358.419 202.939 340.344 204.725 336.932 204.723 L 207.687 204.711 Z M 349.152 177.162 L 257.672 177.162 C 249.824 184.121 259.603 185.343 265.073 185.327 L 343.448 185.336 C 346.969 185.336 350.758 185.573 354.238 185.076 C 359.403 184.339 361.569 176.642 349.152 177.162 Z M 258.627 232.271 C 254.168 234.347 252.671 239.169 258.63 240.527 C 263.099 241.545 276.383 240.769 281.841 240.777 L 307.405 240.833 C 311.778 240.842 316.272 241.075 320.63 240.811 C 325.32 239.939 326.27 234.375 321.318 232.738 C 317.366 231.433 306.536 232.316 301.81 232.302 L 258.627 232.271 Z M 206.481 177.162 C 189.763 188.697 235.915 185.452 238.821 185.327 C 241.685 183.795 243.617 178.831 239.551 177.378 C 237.505 176.646 210.821 177.123 206.481 177.162 Z M 226.847 235.188 C 229.081 237.695 231.386 239.503 234.511 240.811 C 252.316 239.717 234.917 226.573 226.847 235.188 Z" style=""/></svg>